<?xml version="1.0" encoding="utf-8"?>
<!-- Generator: Adobe Illustrator 23.0.3, SVG Export Plug-In . SVG Version: 6.00 Build 0)  -->
<svg version="1.1" id="Layer_1" xmlns="http://www.w3.org/2000/svg" xmlns:xlink="http://www.w3.org/1999/xlink" x="0px" y="0px"
	 viewBox="0 0 516.5 488.3" style="enable-background:new 0 0 516.5 488.3;" xml:space="preserve">
<style type="text/css">
	.st0{fill:#231F20;}
	.st1{fill:none;stroke:#231F20;stroke-width:0.71;stroke-linecap:round;stroke-linejoin:round;}
	.st2{font-family:'Poppins-SemiBold';}
	.st3{font-size:12px;}
</style>
<title>DT</title>
<g id="CIRCLE">
	<path class="st0" d="M14.4,128.7c-2.7-1-5.7-2.2-7.3-2.9v0.1c2.7,1.8,7.6,5.9,11.9,9.3l-1,2.5c-4.6-0.4-11.8-0.9-15-1.3v0.1
		c1.9,0.6,5.2,1.8,7.8,2.8l5.8,2.2l-1,2.7L0,138.2l1.7-4.3c4.9,0.3,10.9,0.7,13.3,1.1l0,0c-1.7-1.1-6.8-5.3-10.5-8.4l1.6-4.2
		l15.5,5.9l-1.1,2.8L14.4,128.7z"/>
	<path class="st0" d="M25.6,112.4c0.9,0.4,1.8,0.8,2.8,1.1l-1.2,2.6c-0.4-0.1-0.9-0.2-1.3-0.4c0.5,0.7,0.9,1.9-0.1,3.9
		c-1.3,2.7-3.6,3-5.3,2.1c-2.5-1.2-2.7-3.8-1.2-7c0.3-0.6,0.6-1.3,0.8-1.7l-0.8-0.4c-0.9-0.4-1.9-0.5-2.7,1.1
		c-0.7,1.5-0.2,2.1,0.6,2.7l-1.2,2.6c-1.8-1-2.9-3-1.3-6.3c1.4-2.9,3.3-3.9,5.9-2.7L25.6,112.4z M21.9,113.9l-0.7,1.4
		c-0.9,2-0.8,3.1,0.5,3.7c0.9,0.5,1.9,0.1,2.4-0.8c0-0.1,0.1-0.2,0.1-0.2c1.1-2.2-0.3-3.2-2-4L21.9,113.9z"/>
	<path class="st0" d="M19.7,103.6l1-1.7l-3-1.6l1.4-2.6l3,1.6l1.2-2.2l2,1.1l-1.2,2.2l5.7,3.1c0.9,0.5,1.4,0.5,1.9-0.5
		c0.1-0.3,0.3-0.5,0.4-0.8l1.8,1c-0.2,0.7-0.4,1.4-0.8,2c-1.1,2-2.5,2.1-4.4,1.1l-6.1-3.3l-1,1.7L19.7,103.6z"/>
	<path class="st0" d="M33,93.8c1.6,1,3.4,1,4.4-0.5c0.7-0.8,0.7-2,0-2.9l1.6-2.6c1.7,1.8,1.9,4.7,0.4,6.7c-2.1,3.4-5.6,3.2-8.3,1.5
		c-3.2-2-4.6-5.1-2.6-8.4c2.2-3.5,5.6-3.1,8-1.6c0.3,0.2,0.6,0.4,0.9,0.6L33,93.8z M34.2,88.3c-1.4-0.8-2.9-0.9-3.9,0.6
		s-0.3,2.9,1.1,3.9L34.2,88.3z"/>
	<path class="st0" d="M37.8,79.9c-1.1-0.8-2-1.4-2.8-1.9l1.7-2.4c0.3,0.1,1.2,0.8,1.9,1.2c-1-1.5-0.9-3.4,0.2-4.8l2.4,1.6
		c-1.4,2-1.6,3.8,1.1,5.7l4.6,3.2l-1.7,2.4L37.8,79.9z"/>
	<path class="st0" d="M38.2,64.7l1.8-2.4l2.3,1.8l-1.8,2.4L38.2,64.7z M42.4,67.9l1.8-2.4L54,73l-1.8,2.4L42.4,67.9z"/>
	<path class="st0" d="M61.9,58.6c0.8,0.7,1.6,1.3,2.4,1.8l-1.8,2.2c-0.4-0.2-0.8-0.4-1.2-0.7c0.3,0.8,0.4,2.1-1.1,3.8
		c-1.9,2.3-4.2,2-5.6,0.7c-2.1-1.8-1.7-4.3,0.7-7.1c0.4-0.5,0.9-1.1,1.2-1.4l-0.7-0.6c-0.7-0.6-1.7-1-2.9,0.4s-0.7,2-0.1,2.7
		L51,62.6c-1.4-1.4-2-3.6,0.4-6.4c2.1-2.4,4.2-2.9,6.4-1.1L61.9,58.6z M57.9,59.1l-1,1.2c-1.4,1.7-1.5,2.8-0.5,3.7
		c0.7,0.7,1.9,0.6,2.5-0.1c0.1-0.1,0.1-0.1,0.2-0.2c1.6-1.9,0.5-3.2-0.9-4.4L57.9,59.1z"/>
	<path class="st0" d="M68.4,56L55.6,44l2-2.2l12.8,12L68.4,56z"/>
	<path class="st0" d="M62.5,36.8l2.1-2.1l2,2.1l-2.1,2.1L62.5,36.8z M66.2,40.5l2.2-2.1l8.7,8.8l-2.1,2.1L66.2,40.5z"/>
	<path class="st0" d="M79.3,41.8l-0.3-10l-4.6,4.1l-1.6-1.8l7.1-6.3l1.6,1.8l0.4,9.9l5-4.5l1.3,2l-7.3,6.6L79.3,41.8z"/>
	<path class="st0" d="M90.5,27.7c1.2,1.5,2.9,2.1,4.3,1c0.9-0.5,1.4-1.7,1-2.7l2.3-1.9c1,2.3,0.2,5.1-1.9,6.5
		c-3.1,2.5-6.4,1.1-8.4-1.4c-2.4-3-2.6-6.4,0.5-8.8c3.3-2.6,6.3-1,8.1,1.3c0.2,0.3,0.4,0.5,0.6,0.8L90.5,27.7z M93.5,22.9
		c-1-1.3-2.4-1.9-3.9-0.8s-1.2,2.6-0.3,4L93.5,22.9z"/>
</g>
<g id="POLYLINE">
	<polyline class="st1" points="263.5,449.5 257,443.4 263.3,436.7 	"/>
</g>
<g id="ARC">
	<path class="st1" d="M263.3,436.7c71.2-4.3,135.5-44.1,171.1-105.9"/>
</g>
<g id="POLYLINE-2">
	<polyline class="st1" points="434.3,330.8 436.5,339.8 445.2,337.7 	"/>
</g>
<g id="ARC-2">
	<path class="st1" d="M445.2,337.7C407.3,403.2,339,445.2,263.5,449.5"/>
</g>
<g id="POLYLINE-3">
	<polyline class="st1" points="250.8,0.3 257,6.9 250.3,13.2 	"/>
</g>
<g id="ARC-3">
	<path class="st1" d="M250.3,13.2c71.3-0.1,137.9,35.7,177.2,95.2"/>
</g>
<g id="POLYLINE-4">
	<polyline class="st1" points="427.5,108.4 436.5,110.5 438.5,101.8 	"/>
</g>
<g id="ARC-4">
	<path class="st1" d="M438.5,101.8C397,38.5,326.5,0.4,250.8,0.4"/>
</g>
<g id="POLYLINE-5">
	<polyline class="st1" points="49.9,124.1 58.4,121.5 61.1,130.3 	"/>
</g>
<g id="ARC-5">
	<path class="st1" d="M61.1,130.3c-31.9,63.8-29.6,139.4,6.2,201.1"/>
</g>
<g id="POLYLINE-6">
	<polyline class="st1" points="67.3,331.4 58.4,328.8 55.9,337.3 	"/>
</g>
<g id="ARC-6">
	<path class="st1" d="M55.9,337.3c-37.8-65.5-40-145.7-6-213.3"/>
</g>
<g id="POLYLINE-7">
	<polyline class="st1" points="440.2,319.9 442.8,328.8 451.4,326.2 	"/>
</g>
<g id="ARC-7">
	<path class="st1" d="M451.4,326.2c34-67.6,31.8-147.7-6-213.3"/>
</g>
<g id="POLYLINE-8">
	<polyline class="st1" points="445.4,112.9 442.8,121.5 434,118.8 	"/>
</g>
<g id="ARC-8">
	<path class="st1" d="M434,118.9c35.8,61.7,38.1,137.3,6.2,201.1"/>
</g>
<g id="POLYLINE-9">
	<polyline class="st1" points="73.8,341.9 64.8,339.8 62.7,348.5 	"/>
</g>
<g id="ARC-9">
	<path class="st1" d="M62.7,348.5c41.5,63.2,112.1,101.4,187.7,101.4"/>
</g>
<g id="POLYLINE-10">
	<polyline class="st1" points="250.4,449.9 244.3,443.4 251,437 	"/>
</g>
<g id="ARC-10">
	<path class="st1" d="M251,437.1c-71.3,0.1-137.9-35.6-177.2-95.2"/>
</g>
<g id="POLYLINE-11">
	<polyline class="st1" points="237.9,13.6 244.3,6.9 237.8,0.7 	"/>
</g>
<g id="ARC-11">
	<path class="st1" d="M237.8,0.7C162.2,5.1,94,47.1,56.1,112.6"/>
</g>
<g id="POLYLINE-12">
	<polyline class="st1" points="56.1,112.6 64.8,110.5 66.9,119.5 	"/>
</g>
<g id="ARC-12">
	<path class="st1" d="M66.9,119.5c35.6-61.8,99.8-101.6,171-105.9"/>
</g>
<g id="CIRCLE-2">
	<path class="st0" d="M459.4,61.1l-7.9,6c-2.7,2.1-2.4,4.1-1.2,5.6c1.3,1.8,3.1,2.2,5.7,0.2l7.9-6l1.9,2.5l-7.8,5.9
		c-4.4,3.4-7.5,1.7-9.7-1.1s-2.9-6.4,1.4-9.6l7.8-6L459.4,61.1z"/>
	<path class="st0" d="M463.7,79.4c0.9-0.6,1.8-1.2,2.6-1.7l1.6,2.4c-0.4,0.4-0.9,0.7-1.4,1c1.5-0.1,3,0.6,3.7,2c1.3,2,0.9,4.3-1.7,6
		l-6.6,4.3l-1.6-2.5l6.3-4.1c1.3-0.9,1.9-1.9,1-3.3s-2.4-1.6-4.3-0.3l-5.7,3.7l-1.6-2.5L463.7,79.4z"/>
	<path class="st0" d="M485.8,99.7l-12.3,6.9c-1,0.6-2,1.1-3,1.7l-1.4-2.5c0.3-0.2,0.9-0.6,1.2-0.8c-1.2,0-2.3-0.7-3.3-2.3
		c-1.5-2.7-0.3-5.7,3-7.6s6.8-1.4,8.5,1.6c0.9,1.7,0.8,2.9,0.4,3.4l5.4-3.1L485.8,99.7z M471.6,97.7c-2.3,1.3-3,2.9-2.1,4.5
		c1.2,2.2,3.2,1.6,5,0.5c2-1.1,3.3-2.3,2.1-4.4C475.6,96.6,473.8,96.5,471.6,97.7z"/>
	<path class="st0" d="M479.2,113.3c-1.7,0.8-2.7,2.4-1.9,4c0.3,1,1.3,1.7,2.4,1.5l1.3,2.7c-2.5,0.5-5-0.9-5.9-3.3
		c-1.7-3.6,0.3-6.5,3.2-7.9c3.4-1.6,6.8-1.1,8.5,2.4c1.8,3.8-0.4,6.4-3,7.6c-0.3,0.2-0.6,0.3-1,0.4L479.2,113.3z M483.2,117.3
		c1.5-0.7,2.4-2,1.6-3.6s-2.2-1.8-3.9-1.2L483.2,117.3z"/>
	<path class="st0" d="M488.3,124.9c1.3-0.5,2.3-0.9,3.1-1.3l1.1,2.7c-0.3,0.1-1.3,0.6-2.1,0.9c1.8,0,3.3,1.1,3.9,2.8l-2.7,1.1
		c-0.9-2.3-2.3-3.4-5.4-2.1l-5.2,2.1l-1.1-2.8L488.3,124.9z"/>
	<path class="st0" d="M488.6,140.3c-1,0.7-1.3,1.9-0.8,3c0.5,1.4,1.2,1.7,2,1.4s1-0.9,0.9-3c-0.4-4,0.5-5,2.2-5.5s3.9,0,5,3.4
		s-0.3,5.2-1.8,5.9l-0.9-2.7c0.9-0.6,1.2-1.7,0.7-2.6c-0.4-1.2-1.2-1.5-1.8-1.2s-0.9,0.8-0.7,2.9c0.4,4.1-0.7,5.1-2.4,5.7
		c-2,0.7-4.2-0.3-5.3-3.6s0-5.4,2-6.4L488.6,140.3z"/>
	<path class="st0" d="M500.6,149l0.5,1.9l3.3-1l0.8,2.9l-3.3,1l0.7,2.4l-2.2,0.6l-0.7-2.4l-6.2,1.8c-1,0.3-1.3,0.7-1,1.7
		c0.1,0.3,0.2,0.6,0.3,0.8l-2,0.6c-0.4-0.6-0.6-1.3-0.8-2c-0.6-2.2,0.3-3.3,2.3-3.9l6.6-1.9l-0.7-1.8L500.6,149z"/>
	<path class="st0" d="M497.3,173.5c-1,0.2-2,0.5-2.9,0.8l-0.6-2.8c0.4-0.2,0.8-0.4,1.3-0.5c-0.8-0.3-1.9-0.9-2.4-3.1
		c-0.7-2.9,1-4.5,2.8-5c2.7-0.6,4.5,1.2,5.3,4.8c0.2,0.7,0.3,1.4,0.4,1.8l0.8-0.2c0.9-0.2,1.8-0.8,1.4-2.5c-0.4-1.6-1.2-1.8-2.1-1.7
		l-0.6-2.8c2-0.3,4.1,0.5,4.9,4.1c0.7,3.1-0.1,5.1-3,5.8L497.3,173.5z M499.3,170l-0.4-1.5c-0.5-2.1-1.3-2.9-2.7-2.6
		c-1,0.2-1.6,1.1-1.4,2.1c0,0.1,0,0.2,0.1,0.3c0.5,2.4,2.2,2.3,4,1.9L499.3,170z"/>
	<path class="st0" d="M504.7,178.8c1-0.2,2.2-0.3,3.1-0.5l0.5,2.9c-0.6,0.2-1.1,0.3-1.7,0.4c1.4,0.5,2.5,1.8,2.6,3.3
		c0.4,2.4-0.9,4.3-4,4.8l-7.8,1.2l-0.5-2.9l7.4-1.2c1.5-0.2,2.5-1,2.3-2.6s-1.5-2.4-3.8-2l-6.7,1.1l-0.5-2.9L504.7,178.8z"/>
	<path class="st0" d="M516.5,206.4l-14.1,1.3L499,208l-0.2-2.9c0.5-0.1,0.9-0.2,1.4-0.3c-1.1-0.5-1.9-1.6-2-3.5
		c-0.3-3.1,2.1-5.3,5.9-5.7s6.7,1.5,7,5c0.2,1.9-0.5,2.9-1,3.3l6.2-0.6L516.5,206.4z M504.4,198.8c-2.6,0.2-3.9,1.5-3.7,3.2
		c0.2,2.5,2.3,2.7,4.3,2.5c2.3-0.2,3.9-0.7,3.7-3.1C508.5,199.5,506.9,198.5,504.4,198.8z"/>
</g>
<g id="CIRCLE-3">
	<path class="st0" d="M219,474l-7.9-1.3l-0.8,4.7l8.7,1.5l-0.8,2.5l-11.4-1.9l2.7-16.4l11.3,1.9l-0.4,2.5l-8.3-1.4l-0.7,4l7.9,1.3
		L219,474z"/>
	<path class="st0" d="M228.3,470.1c1.2,2.6,1.7,3.6,2.1,4.3l0,0c0.5-0.7,1.5-2.1,2.8-3.9l3.3,0.3l-4.5,5.5l3.5,6.8l-3.4-0.3
		c-1-2.3-1.7-3.8-2.1-4.6l0,0c-0.4,0.6-1.4,2.2-2.8,4.2l-3.3-0.3l4.4-5.7l-3.3-6.6L228.3,470.1z"/>
	<path class="st0" d="M243.9,482.3l-0.2,6l-3-0.1l0.4-14.1c0-1,0.1-2,0.1-3l2.9,0.1c0,0.6,0.1,1.1,0.1,1.7c0.8-1.3,2.3-2,3.8-1.9
		c2.8,0.1,4.9,2.5,4.8,6.3c-0.1,4.4-2.6,6.7-5.6,6.6C245.8,484,244.6,483.4,243.9,482.3z M249.6,477.3c0.1-2.4-0.9-3.8-2.7-3.9
		c-2.1-0.1-3,1.3-3,3.9s0.6,4.1,2.7,4.1S249.5,480.1,249.6,477.3L249.6,477.3z"/>
	<path class="st0" d="M258.7,483.7l-0.5-17.5l3-0.1l0.5,17.5L258.7,483.7z"/>
	<path class="st0" d="M279.4,476.2c0.3,3.7-1.6,6.6-5.5,7s-6.1-2.2-6.5-5.9s1.7-6.7,5.5-7C276.5,470,279,472.4,279.4,476.2z
		 M270.5,477c0.2,2.5,1.5,4,3.3,3.8s2.8-1.8,2.6-4.3s-1.4-4-3.3-3.8S270.2,474.3,270.5,477L270.5,477z"/>
	<path class="st0" d="M284.8,472.7c-0.2-1.4-0.4-2.4-0.5-3.3l2.9-0.4c0.1,0.3,0.3,1.4,0.4,2.2c0.4-1.7,1.9-3,3.6-3.1l0.4,2.8
		c-2.5,0.3-3.9,1.4-3.4,4.7l0.8,5.5l-3,0.4L284.8,472.7z"/>
	<path class="st0" d="M299.7,473.7c0.4,1.8,1.6,3.2,3.4,2.8c1.1-0.1,2-0.9,2.1-2l2.9-0.6c-0.1,2.5-2.1,4.6-4.6,4.9
		c-3.9,0.8-6.2-1.8-6.9-5c-0.8-3.7,0.6-6.9,4.4-7.7c4.1-0.8,6.1,1.9,6.6,4.8c0.1,0.3,0.1,0.7,0.2,1L299.7,473.7z M304.6,470.8
		c-0.4-1.6-1.3-2.8-3.1-2.4s-2.3,1.8-2.1,3.5L304.6,470.8z"/>
</g>
<text transform="matrix(1 0 0 1 304.5997 72.1199)" class="st2 st3">Empathise </text>
<text transform="matrix(1 0 0 1 403 219.5549)" class="st2 st3">Define</text>
<text transform="matrix(1 0 0 1 328 389.4652)" class="st2 st3">Ideate</text>
<text transform="matrix(1 0 0 1 133 389.4652)" class="st2 st3">Prototype</text>
<text transform="matrix(1 0 0 1 57.0095 219.555)" class="st2 st3">Test</text>
<text transform="matrix(1 0 0 1 136.9546 70.445)" class="st2 st3">Implement</text>
</svg>
