<?xml version="1.0" encoding="utf-8"?>
<!-- Generator: Adobe Illustrator 23.0.3, SVG Export Plug-In . SVG Version: 6.00 Build 0)  -->
<svg version="1.1" id="Layer_1" xmlns="http://www.w3.org/2000/svg" xmlns:xlink="http://www.w3.org/1999/xlink" x="0px" y="0px"
	 viewBox="0 0 468.7 495" style="enable-background:new 0 0 468.7 495;" xml:space="preserve">
<style type="text/css">
	.st0{fill:none;stroke:#000000;stroke-width:0.7087;stroke-linecap:round;stroke-linejoin:round;stroke-miterlimit:10;}
	.st1{font-family:'Poppins-SemiBold';}
	.st2{font-size:12px;}
</style>
<g id="Layer_2">
</g>
<g>
	<g id="POLYLINE_13_">
		<polygon class="st0" points="418.7,240.6 331.6,240.6 288,165.2 331.6,89.7 418.7,89.7 462.3,165.2 		"/>
	</g>
	<g id="POLYLINE_12_">
		<polygon class="st0" points="331.6,402.4 288,327 331.6,251.5 418.7,251.5 462.3,327 418.7,402.4 		"/>
	</g>
	<g id="POLYLINE_11_">
		<polygon class="st0" points="147.9,407.9 191.4,332.4 278.6,332.4 322.1,407.9 278.6,483.4 191.4,483.4 		"/>
	</g>
	<g id="POLYLINE_10_">
		<polygon class="st0" points="51.3,251.5 138.4,251.5 182,327 138.4,402.4 51.3,402.4 7.7,327 		"/>
	</g>
	<g id="POLYLINE_9_">
		<polygon class="st0" points="138.4,89.7 182,165.2 138.4,240.6 51.3,240.6 7.7,165.2 51.3,89.7 		"/>
	</g>
	<g id="POLYLINE_8_">
		<polygon class="st0" points="322.1,84.3 278.6,159.7 191.4,159.7 147.9,84.3 191.4,8.8 278.6,8.8 		"/>
	</g>
	<g id="POLYLINE_7_">
		<polygon class="st0" points="322.1,246.1 278.6,170.6 191.4,170.6 147.9,246.1 191.4,321.5 278.6,321.5 		"/>
	</g>
</g>
<text transform="matrix(1 0 0 1 207.4217 250.5179)" class="st1 st2">Valuable</text>
<text transform="matrix(1 0 0 1 215.1554 89.7008)" class="st1 st2">Useful</text>
<text transform="matrix(1 0 0 1 339.9183 170.6093)" class="st1 st2">Desireable</text>
<text transform="matrix(1 0 0 1 341.9183 330.426)" class="st1 st2">Accessible</text>
<text transform="matrix(1 0 0 1 208.5865 410.7422)" class="st1 st2">Credible</text>
<text transform="matrix(1 0 0 1 68.5076 329.9803)" class="st1 st2">Findable</text>
<text transform="matrix(1 0 0 1 73.356 169.6093)" class="st1 st2">Usable</text>
</svg>
